<svg width="373" height="110" viewBox="0 0 373 110" fill="none" xmlns="http://www.w3.org/2000/svg">
<path d="M186.5 0.5C237.967 0.5 284.542 6.6528 318.234 16.5889C335.084 21.5578 348.682 27.4651 358.058 34.002C367.448 40.549 372.5 47.6524 372.5 55C372.5 62.3476 367.448 69.451 358.058 75.998C348.682 82.5349 335.084 88.4422 318.234 93.4111C284.542 103.347 237.967 109.5 186.5 109.5C135.033 109.5 88.4579 103.347 54.7656 93.4111C37.9164 88.4422 24.3178 82.5349 14.9424 75.998C5.55246 69.451 0.5 62.3476 0.5 55C0.5 47.6524 5.55246 40.549 14.9424 34.002C24.3178 27.4651 37.9164 21.5578 54.7656 16.5889C88.4579 6.6528 135.033 0.5 186.5 0.5Z" stroke="#9747FF"/>
</svg>
