<svg width="154" height="62" viewBox="0 0 154 62" fill="none" xmlns="http://www.w3.org/2000/svg">
<rect x="0.5" y="0.5" width="10" height="10" stroke="#33FFF3"/>
<rect x="143.5" y="0.5" width="10" height="10" stroke="#33FFF3"/>
<rect x="0.5" y="51.5" width="10" height="10" stroke="#33FFF3"/>
<rect x="143.5" y="51.5" width="10" height="10" stroke="#33FFF3"/>
<path d="M32.92 42.192C31.2773 42.192 29.8053 41.8293 28.504 41.104C27.224 40.3787 26.2107 39.3653 25.464 38.064C24.7173 36.7627 24.344 35.248 24.344 33.52C24.344 31.792 24.7173 30.288 25.464 29.008C26.2107 27.7067 27.224 26.6933 28.504 25.968C29.8053 25.2427 31.2773 24.88 32.92 24.88C34.3493 24.88 35.64 25.2 36.792 25.84C37.944 26.48 38.8613 27.44 39.544 28.72C40.248 30 40.6 31.6 40.6 33.52C40.6 35.44 40.2587 37.04 39.576 38.32C38.9147 39.6 38.008 40.5707 36.856 41.232C35.704 41.872 34.392 42.192 32.92 42.192ZM33.176 39.504C34.2427 39.504 35.2027 39.2587 36.056 38.768C36.9307 38.2773 37.6133 37.584 38.104 36.688C38.616 35.7707 38.872 34.7147 38.872 33.52C38.872 32.304 38.616 31.2587 38.104 30.384C37.6133 29.488 36.9307 28.7947 36.056 28.304C35.2027 27.8133 34.2427 27.568 33.176 27.568C32.088 27.568 31.1173 27.8133 30.264 28.304C29.4107 28.7947 28.728 29.488 28.216 30.384C27.704 31.2587 27.448 32.304 27.448 33.52C27.448 34.7147 27.704 35.7707 28.216 36.688C28.728 37.584 29.4107 38.2773 30.264 38.768C31.1173 39.2587 32.088 39.504 33.176 39.504ZM38.968 42V37.424L39.16 33.488L38.84 29.552V18.256H41.912V42H38.968ZM55.2765 42.192C53.4632 42.192 51.8632 41.8187 50.4765 41.072C49.1112 40.3253 48.0445 39.3013 47.2765 38C46.5298 36.6987 46.1565 35.2053 46.1565 33.52C46.1565 31.8347 46.5192 30.3413 47.2445 29.04C47.9912 27.7387 49.0045 26.7253 50.2845 26C51.5858 25.2533 53.0472 24.88 54.6685 24.88C56.3112 24.88 57.7618 25.2427 59.0205 25.968C60.2792 26.6933 61.2605 27.7173 61.9645 29.04C62.6898 30.3413 63.0525 31.8667 63.0525 33.616C63.0525 33.744 63.0418 33.8933 63.0205 34.064C63.0205 34.2347 63.0098 34.3947 62.9885 34.544H48.5565V32.336H61.3885L60.1405 33.104C60.1618 32.016 59.9378 31.0453 59.4685 30.192C58.9992 29.3387 58.3485 28.6773 57.5165 28.208C56.7058 27.7173 55.7565 27.472 54.6685 27.472C53.6018 27.472 52.6525 27.7173 51.8205 28.208C50.9885 28.6773 50.3378 29.3493 49.8685 30.224C49.3992 31.0773 49.1645 32.0587 49.1645 33.168V33.68C49.1645 34.8107 49.4205 35.824 49.9325 36.72C50.4658 37.5947 51.2018 38.2773 52.1405 38.768C53.0792 39.2587 54.1565 39.504 55.3725 39.504C56.3752 39.504 57.2818 39.3333 58.0925 38.992C58.9245 38.6507 59.6498 38.1387 60.2685 37.456L61.9645 39.44C61.1965 40.336 60.2365 41.0187 59.0845 41.488C57.9538 41.9573 56.6845 42.192 55.2765 42.192ZM72.1823 42.192C70.7743 42.192 69.4303 42 68.1503 41.616C66.8916 41.232 65.8996 40.7627 65.1743 40.208L66.4543 37.776C67.1796 38.2667 68.0756 38.6827 69.1423 39.024C70.2089 39.3653 71.2969 39.536 72.4062 39.536C73.8356 39.536 74.8596 39.3333 75.4783 38.928C76.1183 38.5227 76.4383 37.9573 76.4383 37.232C76.4383 36.6987 76.2463 36.2827 75.8623 35.984C75.4783 35.6853 74.9663 35.4613 74.3263 35.312C73.7076 35.1627 73.0143 35.0347 72.2463 34.928C71.4783 34.8 70.7103 34.6507 69.9423 34.48C69.1743 34.288 68.4703 34.032 67.8303 33.712C67.1903 33.3707 66.6783 32.912 66.2943 32.336C65.9103 31.7387 65.7183 30.9493 65.7183 29.968C65.7183 28.944 66.0063 28.048 66.5823 27.28C67.1583 26.512 67.9689 25.9253 69.0143 25.52C70.0809 25.0933 71.3396 24.88 72.7903 24.88C73.8996 24.88 75.0196 25.0187 76.1503 25.296C77.3023 25.552 78.2409 25.9253 78.9663 26.416L77.6543 28.848C76.8863 28.336 76.0863 27.984 75.2543 27.792C74.4223 27.6 73.5903 27.504 72.7583 27.504C71.4143 27.504 70.4116 27.728 69.7503 28.176C69.0889 28.6027 68.7583 29.1573 68.7583 29.84C68.7583 30.416 68.9503 30.864 69.3343 31.184C69.7396 31.4827 70.2516 31.7173 70.8703 31.888C71.5103 32.0587 72.2143 32.208 72.9823 32.336C73.7503 32.4427 74.5183 32.592 75.2863 32.784C76.0543 32.9547 76.7476 33.2 77.3663 33.52C78.0063 33.84 78.5183 34.288 78.9023 34.864C79.3076 35.44 79.5103 36.208 79.5103 37.168C79.5103 38.192 79.2116 39.0773 78.6143 39.824C78.0169 40.5707 77.1743 41.1573 76.0863 41.584C74.9983 41.9893 73.6969 42.192 72.1823 42.192ZM83.3495 42V25.04H86.4215V42H83.3495ZM84.8855 21.776C84.2882 21.776 83.7868 21.584 83.3815 21.2C82.9975 20.816 82.8055 20.3467 82.8055 19.792C82.8055 19.216 82.9975 18.736 83.3815 18.352C83.7868 17.968 84.2882 17.776 84.8855 17.776C85.4828 17.776 85.9735 17.968 86.3575 18.352C86.7628 18.7147 86.9655 19.1733 86.9655 19.728C86.9655 20.304 86.7735 20.7947 86.3895 21.2C86.0055 21.584 85.5042 21.776 84.8855 21.776ZM99.711 48.4C98.1537 48.4 96.639 48.176 95.167 47.728C93.7163 47.3013 92.5323 46.6827 91.615 45.872L93.087 43.504C93.8763 44.1867 94.847 44.72 95.999 45.104C97.151 45.5093 98.3563 45.712 99.615 45.712C101.62 45.712 103.092 45.2427 104.031 44.304C104.97 43.3653 105.439 41.936 105.439 40.016V36.432L105.759 33.072L105.599 29.68V25.04H108.511V39.696C108.511 42.6827 107.764 44.88 106.271 46.288C104.778 47.696 102.591 48.4 99.711 48.4ZM99.327 41.296C97.6843 41.296 96.2123 40.9547 94.911 40.272C93.631 39.568 92.607 38.5973 91.839 37.36C91.0923 36.1227 90.719 34.6933 90.719 33.072C90.719 31.4293 91.0923 30 91.839 28.784C92.607 27.5467 93.631 26.5867 94.911 25.904C96.2123 25.2213 97.6843 24.88 99.327 24.88C100.778 24.88 102.1 25.1787 103.295 25.776C104.49 26.352 105.439 27.248 106.143 28.464C106.868 29.68 107.231 31.216 107.231 33.072C107.231 34.9067 106.868 36.432 106.143 37.648C105.439 38.864 104.49 39.7813 103.295 40.4C102.1 40.9973 100.778 41.296 99.327 41.296ZM99.679 38.608C100.81 38.608 101.812 38.3733 102.687 37.904C103.562 37.4347 104.244 36.784 104.735 35.952C105.247 35.12 105.503 34.16 105.503 33.072C105.503 31.984 105.247 31.024 104.735 30.192C104.244 29.36 103.562 28.72 102.687 28.272C101.812 27.8027 100.81 27.568 99.679 27.568C98.5483 27.568 97.535 27.8027 96.639 28.272C95.7643 28.72 95.071 29.36 94.559 30.192C94.0683 31.024 93.823 31.984 93.823 33.072C93.823 34.16 94.0683 35.12 94.559 35.952C95.071 36.784 95.7643 37.4347 96.639 37.904C97.535 38.3733 98.5483 38.608 99.679 38.608ZM123.437 24.88C124.823 24.88 126.039 25.1467 127.085 25.68C128.151 26.2133 128.983 27.024 129.581 28.112C130.178 29.2 130.477 30.576 130.477 32.24V42H127.405V32.592C127.405 30.9493 126.999 29.712 126.189 28.88C125.399 28.048 124.279 27.632 122.829 27.632C121.741 27.632 120.791 27.8453 119.981 28.272C119.17 28.6987 118.541 29.328 118.093 30.16C117.666 30.992 117.453 32.0267 117.453 33.264V42H114.381V25.04H117.325V29.616L116.845 28.4C117.399 27.2907 118.253 26.4267 119.405 25.808C120.557 25.1893 121.901 24.88 123.437 24.88Z" fill="#33FFF3"/>
<path d="M6 11V51" stroke="#33FFF3"/>
<path d="M149 11L149 51" stroke="#33FFF3"/>
<path d="M11 57L143 57" stroke="#33FFF3"/>
<path d="M11 6L143 6.00001" stroke="#33FFF3"/>
</svg>
